<svg xmlns="http://www.w3.org/2000/svg" viewBox="0 0 198.52 482.18"><g id="Ebene_2" data-name="Ebene 2"><g id="Ebene_1-2" data-name="Ebene 1"><path d="M47.22,155.26c-15.41-18.73-28.66-41.5-42.88-62.44l-1.56.3c.29,8.88-.1,17.73,1,26.65,2,15.74,7.87,28.93,17,39.38,7,8,13.73,16.94,20.8,24.87,5.11,5.72,10.59,10.48,15.69,17.21-1.12-.31-2.37-.14-3.34-1a173.44,173.44,0,0,1-13.15-12.68c-8-9-16.13-18-23.72-27.92C7.49,147,2,131.81.42,113.62c-2.26-26,5-43.66,14.31-59.13,17.2-28.49,39.8-45,66-52.55,7-2,14.7-2.77,22.18-.74,9.67,2.63,20.56,10.64,26.56,29.07,7,21.39,5.08,40.43,4.85,59.91a304.28,304.28,0,0,0,3.29,49.22c.55,3.68.84,7.36,1.25,11l-1.48.23c-1.21-5.22-2.82-10.44-3.56-15.66-3.25-23-2.81-45.16-2-67,.6-15.69-2.49-30.52-8.24-45.21a19.79,19.79,0,0,0-5.18-7.19c-6-5.25-11.78-11-18.49-10s-14.3-.74-20.74,1.47C48.66,17.59,22.52,37.38,7,78.66c-.69,1.83-1.29,3.77-2,5.58-1.34,3.43-.94,5.81,1.73,9.6,10,14.11,19.53,28.93,29.37,43.25,3.88,5.65,8.1,10.7,12.17,16C47.89,153.83,47.56,154.54,47.22,155.26Z"/><path d="M168.2,471.23c3.3-21.93,6.4-42.56,9.5-63.2l2.22-.45c.39,6.07-2.16,12.89-3.06,19.3-1,7.09-2.13,14.22-2.89,21.25-.72,6.73-1,13.35-1.53,19.92,10.43-3.72,11.8-15.36,15.2-25.39,6-17.63,4.56-33.63,7-50.45a39.33,39.33,0,0,1,1.85-5.88c.73,1.47,2.18,2.68,2.08,4.45-.66,10.74-.55,21.57-2.85,32.46a244,244,0,0,1-12.12,39.52c-1.93,4.82-8,8.76-12.39,11.52-16.09,10.2-30.34,8.86-44,5.22-8.14-2.17-16.05-5.14-20.84-14.22-3.15-6-7-12.23-4.22-22,5.73-19.76,14.1-38.32,26.26-54a7.19,7.19,0,0,1,4.45-2.72c-3.19,4.8-6.79,9.29-9.46,14.48-5.88,11.42-11.61,23-16.77,34.89-4.19,9.64-2.48,17.6,1,23s7.68,10.24,12.7,12.63c10.54,5,22.36,6.48,35,4.22C159.79,475,164.54,472.55,168.2,471.23Z"/><path d="M74,124.92C62.73,96.84,54.49,67.07,44.6,38.21l1.4-.78,30.15,86.39Z"/><path d="M62.12,133c-15.31-22.4-28.55-47.64-42.64-71.71l1.1-1.54L63.47,131Z"/><path d="M92,113.46,72.54,17.16C77.53,26.6,94.05,105.45,92,113.46Z"/><path d="M113.51,96.73c-6-28.86-8.78-56.4-12.69-84C103.48,16.34,115.23,90.74,113.51,96.73Z"/></g></g></svg>