<svg xmlns="http://www.w3.org/2000/svg" viewBox="0 0 214.2 375.68"><g id="Ebene_2" data-name="Ebene 2"><g id="Ebene_1-2" data-name="Ebene 1"><path d="M14.79,136C-1.68,124-3.78,114.28,9.87,93.46c-1.22-1-2.5-2.06-3.71-3.17C-1.6,83.12-2.06,72.39,5,64.43c1.87-2.12,3.21-4.77,5.31-6.58,5.29-4.57,10.87-8.79,17-13.67l-3.61-9.81c-3.54-9.68-.35-18.21,5.5-25.62S43-1.09,52.32.41C76.64,4.3,98.91,14.27,118.67,27.92c17.2,11.89,35.16,23.69,48.28,40.77A93.1,93.1,0,0,1,183,100a37.9,37.9,0,0,1,.58,4.54,38,38,0,0,1-2.71-3.31c-17.05-28.2-41.56-48.8-68.64-66.55A149.56,149.56,0,0,0,55.72,11.92c-6.82-1.19-12.9,1.51-18.1,5.51-4.38,3.37-4.33,8.6-2.5,13.31,3.49,9,9,16.21,18.45,19.81,9.78,3.71,19.6,7.38,29.06,11.8S115.24,83.3,117.21,95.9c-4-3-8.09-5.36-11.36-8.53C91.68,73.63,74.26,66.1,55.63,61.22c-9.91-2.59-20.16-3.95-30.32-5.38-1.94-.27-4.83,1.22-6.18,2.82a51.67,51.67,0,0,0-7,10.89c-3.94,8.28-.21,17.12,8.37,20.38,13.09,5,26,10.28,36.8,19.49A172.73,172.73,0,0,1,71,123.2c1.06,1.13,1.39,3,2.06,4.46l-1.16.9c-3.28-2.62-6.62-5.17-9.83-7.88-11.56-9.76-23.93-17.94-38.95-21.52-3.57-.86-5.6-.77-6.72,3.14A48.06,48.06,0,0,1,13,110.06c-2.72,5.57-2.37,9.27,2.57,13.18,6.73,5.33,13.75,10.33,20.93,15,7.79,5.11,16,9.64,23.85,14.59,1.8,1.14,3.18,3,4.75,4.46l-.93,1.25A45.78,45.78,0,0,0,59,155.64c-11.37-4.71-22.74-9.4-34.19-13.9-3.63-1.43-5.11.26-5,4.12.22,8.43,7.76,16.65,17.78,19.17,7.4,1.86,14.79,3.75,22.12,5.87,1.61.46,2.92,2,3.88,3.79-16.94-1.93-33.43-4.4-47.68-14.28C10.16,156.47,9,148.75,11.57,142A51,51,0,0,1,14.79,136Z"/><path d="M128.39,294.92A37,37,0,0,1,133,315.68c-.39,6.6-2,13.13-3,19.69-1.67,10.3.14,19.93,6,28.55,3.94,5.75,9.46,6.83,15.54,3.6,4-2.1,7.94-4.19,11.89-6.33.41-.22.66-.72,1.51-1.68-7.68-6.29-9.47-15.54-11.4-24.52-1.59-7.42-1.75-15.15-3.21-22.6-1-5.1-3.14-10-5.23-16.33,1.63,1.84,2.59,2.51,3,3.43,4.44,10.54,9.15,21,13.09,31.73s12.56,22.2,24.36,21.74c10.85-.43,20.6-8.29,18.74-22.37-2.64-20-12.4-35.87-23.2-51.7-4.18-6.12-8.52-22-7.72-29.13.64.35,1.51.54,1.62.94,5.8,20.81,20.18,36.9,30.2,55.37a80.7,80.7,0,0,1,8.52,23.69c3.49,19.31-13,37.2-32.55,36.33-3.11-.14-6.2-1-9.3-1.08a7.4,7.4,0,0,0-4.86,1.61c-9.78,9.47-22,9.87-34.16,8.46-3.7-.43-7.56-4.58-10.13-7.95s-5-4.28-8.78-3.86c-8.39.92-16.47.31-24.2-3.95-7.11-3.91-10.49-9.93-11.86-17.43-.7-3.84-2.41-6.52-6.38-7.3C63.05,332.94,57,325.47,59.45,317c2.15-7.47,6.31-14.55,10.6-21.15,3.49-5.38,8.33-9.94,12.83-14.62s9.24-9,14.09-13.7c2.63,1.8,2.59,3.92.47,6.7-7.56,9.93-15.07,19.89-22.36,30a32.66,32.66,0,0,0-4.59,9.3c-1.75,5.77,1,9.9,7,10.8,1.11.16,2.82-1.1,3.66-2.17C87,314.64,93,307.15,98.47,299.25c3.45-5,5.93-10.72,9.3-17,.3,1.48.65,2.18.53,2.78-2,9.93-3.81,19.92-10.93,27.92A40.91,40.91,0,0,0,87,334.14c-1.54,9.63,3.34,15.4,10.87,19.25,4,2,8.85,2.43,13.37,3.3,5,1,6.87-2.66,7.83-6.4,2.41-9.47,4.73-19,6.5-28.6,1.28-7,1.62-14.18,2.37-21.28C128.06,299,128.16,297.64,128.39,294.92Z"/></g></g></svg>