<svg xmlns="http://www.w3.org/2000/svg" viewBox="0 0 291.9 245.33"><defs><style>.cls-1{fill:#fff;}</style></defs><g id="Ebene_2" data-name="Ebene 2"><g id="Ebene_1-2" data-name="Ebene 1"><path d="M291.34,197.73l-33,21.12c.1.38.19.77.29,1.15a31.11,31.11,0,0,1,5.37-.75c5,.14,10.17.13,15.11,1,1.68.31,4.12,3.25,4,4.83A7.69,7.69,0,0,1,279,230.6c-8,3.07-16.19,6.17-24.56,8.08-36.47,8.36-73.37,7.73-110.29,4.13-15.08-1.48-30-3.94-45.1-5.64-17-1.91-34.17-3-51.14-5.38-8.5-1.18-16.75-4.27-25-6.71-1.68-.5-3.08-2-4.3-3.9C43.07,227.81,68,229.82,93,231.73s49.68,7.42,76.49,7.67c-2.71-2.85-4.45-4.66-6.16-6.49-9-9.7-16.25-20.55-18.14-33.83-1.92-13.56,2-25.68,12.25-35.24,1-1,3-.91,4.59-1.33-.69,1.51-1,3.41-2.14,4.46-10.41,9.82-14.34,26.35-9.09,39.91,4,10.35,9.58,19.73,17.64,27.55,3.39,3.28,7,5.12,11.92,5.1,20-.09,40,1.29,59.79-2.5,11.56-2.22,23-5.14,34.48-7.77a5.63,5.63,0,0,0,2.31-.89,44.48,44.48,0,0,0,3.33-3.26c-1.23-1-2.4-2.71-3.72-2.83a102.63,102.63,0,0,0-12.28-.1c-2.48.08-4.95.72-7.41.62a4,4,0,0,1-3-2.09,3.68,3.68,0,0,1,1.4-3.24c11.72-7.15,23.54-14.15,35.34-21.19C290.85,196.77,291.1,197.25,291.34,197.73Z"/><path d="M0,106.53a22.78,22.78,0,0,1,2.71-3.62C17.25,90,31.5,76.64,46.52,64.25c15.92-13.13,32.23-25.84,49-37.84,14.66-10.48,30.73-18.84,48.2-23.71,6.76-1.88,14-1.93,21.1-2.66,1.8-.19,3.67.41,5.48.29,21.76-1.46,36.3,11.2,50.07,25.47,9.19,9.53,14.47,21.51,20.48,33,19.63,37.46,33.46,77.28,47.1,117.15a97,97,0,0,1,3.94,15.81c-.93-2.09-1.95-4.14-2.77-6.27-14-35.82-27.18-72-42.2-107.36-7.88-18.57-16.84-37-30.44-52.53-8.09-9.26-18.77-14.75-29-21-1.19-.73-2.89-.76-4.36-.88-2.83-.22-5.7,0-8.48-.44-21.16-3.3-39.57,4.28-57.57,14-30,16.27-55.19,38.88-80.84,60.89C25.93,87.08,16,96.42,5.71,105.45c-1.28,1.13-3.13,1.63-4.72,2.42Z"/><path d="M142.33,121.2l-72.28-28L69,94.17c1.75,3.83,3.31,7.76,5.35,11.42.54,1,2.51,1.42,3.89,1.59,5.46.67,10.94,1.1,16.4,1.69a36.93,36.93,0,0,1,4,.84l-.22,1.66L77,110.09c1.19,7.61,2.37,8.34,9.7,7.1,6.44-1.1,13-1.89,19.42-2.81.12.73.23,1.46.35,2.2l-24.28,3.93c7.28,16.29,22.36,18.79,37.13,21.83l-.11,2c-2.23.28-4.5,1-6.68.76-18.94-1.7-30.9-12.72-38.39-29.37-3.13-7-5.94-14.1-8.71-21.24-.54-1.38-.85-3.63-.11-4.51s3.14-1,4.44-.46q35.14,13.66,70.16,27.64a16.06,16.06,0,0,1,3.36,2.49Z"/><path d="M221.43,168.84c-.11-10.26,8.81-19.26,16.1-19.21.49,0,1.21-.11,1.45.17,3.75,4.32,8.07,8.33,10.86,13.21,1.21,2.12-.37,6.19-1.38,9.14-2.75,8.07-9.62,10.42-17.17,11.26-1.34.15-3.59-.73-4.13-1.79C224.64,176.66,222.58,171.46,221.43,168.84Zm19.28-11.26c-2.17-4.54-3.93-5-8.21-2.46-6,3.54-8.44,9.51-5.33,14.21C229.17,162.38,232.92,157.54,240.71,157.58Z"/><path d="M96.72,131.44l17.91-6.37.76,2.11L97.48,133.5C97.23,132.81,97,132.13,96.72,131.44Z"/><path class="cls-1" d="M240.71,157.58c-7.79,0-11.54,4.8-13.54,11.75-3.11-4.7-.68-10.67,5.33-14.21C236.78,152.6,238.54,153,240.71,157.58Z"/></g></g></svg>