<svg xmlns="http://www.w3.org/2000/svg" viewBox="0 0 416.57 336.55"><g id="Ebene_2" data-name="Ebene 2"><g id="Ebene_1-2" data-name="Ebene 1"><path d="M119.56,306.41c3.16,1.2,6.3,2.46,9.49,3.59,24.52,8.65,50,12.6,75.72,15.31,22.19,2.33,44.39,4.6,66.57,7.06,7.28.81,14.38,1.67,21.8.21a39.21,39.21,0,0,0,20-10.41c9.49-9.09,18.82-18.41,27.61-28.18,11.6-12.9,25.31-20.69,43-21.31,6.44-.22,12.81-2,19.23-2.95,4.36-.65,6.24-3.36,6.76-7.44a36.66,36.66,0,0,0-4.14-21.71c-2.26-4.47-3.78-9.31-6.3-15.65-4.5-.18-10.75.06-16.82-.88-2.84-.44-5.34-3.14-8-4.82.21-.35.43-.7.65-1-.31,0-.86,0-.89.12-1.54,6.22-6.41,6.6-11.65,7.39-6.82,1-13.48,3.13-20.21,4.76l-.61-1.51,8.47-3.82c0-5.24.18-11.19,0-17.12a276.12,276.12,0,0,1,4.68-60.67c3-16.28,10.18-30.62,20.45-43.79-.14,1.28-.28,2.56-.39,3.58l34.25,6.13.48-.52c-6.13-2.85-12-6.48-18.44-8.38Q366.36,97,341.1,91C333.24,89.1,325,88.66,317,87.52c-11.53-1.62-23.1-3-34.56-5-32.49-5.77-65.26-6.57-98.12-5.92a76.59,76.59,0,0,0-35.69,9.8c-27.76,15.06-51.66,35.17-76,55C50.85,159.11,28.3,176,6,193.12c-1.46,1.12-3.42,1.6-6,2.78.37-1.91.29-2.58.57-2.79,16.31-12.34,32.85-24.4,49-37,14.93-11.71,29.26-24.2,44.1-36,20.1-16,41-31.12,64.79-41,9.21-3.83,20.1-5,30.23-5,21.29-.06,42.6,1.23,63.87,2.4a31.45,31.45,0,0,0,15.92-3C275.6,70,278.24,63.26,275,55.94c-1.81-4.09-4-8-6.06-12-7-13.28-2.88-28.64,9.79-36.73,8.55-5.46,17.62-8.34,27.95-6.79C318.25,2.15,323.09,12.11,317,22.19c-.77,1.26-1.58,2.49-1.59,2.5,2.62,4.64,5.56,8.19,6.7,12.24,1.89,6.72-1.51,10.49-8.5,10.8-10.38.46-18-7.08-16.1-16a10.4,10.4,0,0,1,1.21-3.23c1.94-3.14,3.91-6.25,6-9.26,2.7-3.8.74-5.33-2.8-6.28C294.76,11,284.78,15,280.42,21.52s-4,12.18,1.65,19.61a28.3,28.3,0,0,1,6,20.56,18.79,18.79,0,0,0,4.11,14.46c1.46,1.81,2.09,4.29,3.48,7.32.56.1,2.16.49,3.77.66,13.07,1.31,26.2,2.11,39.18,4,8.52,1.24,16.9,3.76,25.19,6.23,13.53,4,27,8.3,40.36,12.89,5.63,1.94,10.42,5.45,12.41,12.25-12.57-5-25.32-8.5-39-8.41,9.53,4,20.25,5.91,26.6,15.89-11.83-.7-23.59-3.63-36.12-.68,5.2,2.2,9.75,4,14.12,6.08,1.28.62,2.06,2.28,3.08,3.46-1.41.56-2.78,1.45-4.23,1.61-4.7.5-9.43.74-14.14,1.07l-.09,1.4L383,144.19l.13,1.62-22.66,8.63,17.11,5c0,.72,0,1.44,0,2.16-2.15.87-4.25,1.91-6.45,2.57-16.69,5-17,5.24-17.82,22.58-.5,10.64-.58,21.31-.83,32a14.29,14.29,0,0,0,.57,2.39c1.94-2.15,3.51-3.89,5.09-5.61,2.32-2.54,4.32-3.66,6.18.62.81,1.86,2.6,3.28,4.28,5.3l6.95-9.87c1.72,3.84,3.06,6.81,4.39,9.79l1.9-.05c.53-2.9,2.09-6.08,1.39-8.64-2.18-8-5.19-15.67-7.94-23.46-.44-1.25-1.16-2.41-.91-4.11a25.83,25.83,0,0,1,10.51,15.66c1.43,6.42,2.34,13,3.62,20.24,4.74-3.16,5.18-7.56,4.83-12.14-.34-4.39-1-8.75-1.54-13.13l1.29-.63c1,1.63,2.5,3.14,3,4.91,1.44,5.12,2.66,10.31,3.64,15.53,1.36,7.27,1.24,7.3,6.22,10.94l-4.28,2.34c2.08,4.16,4.08,8.12,6,12.1,3.8,7.69,5.42,15.66,3.36,24.19-.88,3.65-3,5.92-6.66,6.59-6.87,1.27-13.73,3.09-20.66,3.44-16.34.84-29.16,7.82-40,19.78-10.29,11.32-21.08,22.21-32.06,32.87-8.39,8.14-19.67,9.22-30.37,8.7-20.11-1-40.25-2.74-60.21-5.39-31.31-4.16-63.05-6.52-92.91-18.18a105.45,105.45,0,0,1-9.44-4.75C119,307.55,119.29,307,119.56,306.41ZM291.78,81.76c-1.61-2.59-2.64-3.71-3.06-5-1.35-4.2-3.71-8.56-3.41-12.69.64-8.67-1.33-16-6.63-22.81C273,34,273.68,25,279.8,17.83c5.93-7,18.48-10.27,25.43-6.7,3.42,1.75,4.83,4.43,2.54,7.72-2.57,3.7-1.81,9-6.46,11.9-1,.64-.62,5.15.4,7.28a10.92,10.92,0,0,0,10,6.36c2.93.08,7.08.84,7.43-3,.31-3.41-.58-8.09-2.81-10.34-4.65-4.68-5.16-4.17-1.54-10.3,4.77-8.06.94-15.92-8.28-17.46-11.34-1.89-21.12,1.76-29.82,8.48-9,7-11.28,20.14-5.85,30.32,2.26,4.25,4.7,8.44,6.6,12.85,3.62,8.38,0,16.47-8.48,19.86-1.16.46-2.24,1.11-4.75,2.37Zm105,41.32.59-1.38c-7.78-3.12-15.54-6.3-23.38-9.25a3.61,3.61,0,0,0-3.17,1.36c-1.63,2.83-2.85,5.89-4.42,9.27Zm-20.43,22.5c-.05-.36-.09-.72-.13-1.09-4.55-.85-9.08-1.86-13.66-2.44-1.2-.15-3.41.78-3.71,1.69-1,2.89-1.23,6-1.87,9.56Zm-15.66-8.28L380,134.5a23,23,0,0,0-8.64-4.21C363.5,128.15,363.17,128.4,360.65,137.3ZM372,160.87l.08-1.17L356,157.53c-.36,3.54-.67,6.64-1,9.91Zm-4.61,63-6.53-8L353.17,225Zm30.89-1.14c-.47-3.68-.86-6.68-1.41-10.89l-5,10.13Z"/><path d="M208,200.51c-4.82-4.86-10-4.17-13.06,1.94-3.39,6.81-3.12,13.9-.66,20.87,1.51,4.27,4.45,5,8.32,2.54,1.93-1.24,3.8-2.57,5.7-3.86l.92,1.09c-.53.88-.85,2.12-1.63,2.58-8.07,4.76-11.55,13.61-17.88,19.9-3.06,3.05-5.88,6.44-9.35,8.93a22.93,22.93,0,0,1-9.08,3.55c-4.07.75-8.29.62-11.16.79-1.12-2.3-1.68-5-3.3-6.55-7.33-7.11-10-16.19-10.26-25.76a182,182,0,0,1,1.87-30.77c.84-5.71,3.66-11.37,6.6-16.48,6.29-10.94,11.9-11.08,23.44-4.73,7.54,4.14,13.69,10.79,20.56,16.21,2.34,1.84,5.05,3.21,7.39,5.06,1.26,1,2.07,2.54,3.08,3.84ZM155.7,183.4c-1.44,2.49-2.89,5-4.44,7.65l24.16,8.68c-.18.53-.37,1.06-.56,1.59l-23.5-8.16c-.5,2.36-1,4-1.16,5.57-.39,3-.78,6-.89,8.94-.3,8.08-.24,8,8.05,8.56,4.14.27,8.27.8,12.4,1.22,0,.47-.1,1-.16,1.43l-19.51-1.57c-1.76,10.24-1.57,10.38,8,9.08,4.58-.63,9.21-.89,13.81-1.31l.15,1.58-21.29,3.09c-.51,8,.58,8.88,7.37,6.5,5.55-1.95,11.17-3.71,16.75-5.55l.47,1.38-21.72,7.83c1.51,8,2.61,8.43,8.79,4.44,4.77-3.09,9.64-6,14.47-9l.92,1.44c-4.65,3-9.33,6-13.95,9.06-2,1.3-5.14,2.26-2.81,5.57s4.88,2.67,7.44,0c1.41-1.49,3.1-2.73,4.66-4.08l.72.89-5.35,6c9.11,1.53,23.33-10.27,28.87-23.35-8-3.69-8-11.26-7.88-18.3s2.06-14.09,10.1-18.57c-7.77-6.11-14.4-12.15-21.83-17-9.92-6.44-17.36-6.29-22.1,6.43Z"/><path d="M299.62,142.08c-7.39.08-16.31-7.91-16.41-14.69-.1-7.13,6.51-14.62,12.93-14.66,7.3,0,16.58,9.75,16.83,17.76C313.16,136.13,306.39,142,299.62,142.08Z"/><path d="M189.61,197,161.9,180.35c.34-.58.68-1.16,1-1.74L190.71,195Z"/><path d="M155.66,183.49c5.47,2.52,11,5,16.39,7.58a45,45,0,0,1,4.42,2.74l-.62,1.19c-6.26-2.7-12.56-5.31-18.73-8.2-.82-.38-1-2.2-1.43-3.38Z"/><path d="M169.73,207.7l-14.14-3.32.33-1.42,14.19,3.31C170,206.74,169.85,207.22,169.73,207.7Z"/></g></g></svg>