<svg xmlns="http://www.w3.org/2000/svg" viewBox="0 0 157.55 212.4"><g id="Ebene_2" data-name="Ebene 2"><g id="Ebene_1-2" data-name="Ebene 1"><path d="M71.24,125.77c3.22-1.3,6.5-2.44,9.63-3.91q30.3-14.22,60.53-28.53a6.66,6.66,0,0,1,3.8-.74l-4.15,3.16.34.68L148,94l.28.63c-10,5.47-20,11.07-30.07,16.37C90.11,125.73,65,144.64,41.29,165.48c-2,1.74-4.88,2.39-7.12,3.88a34.83,34.83,0,0,0-8.1,7.23c7.07-1.46,14.74,1.85,20.66-5.57,9.87-12.34,22.71-21.38,36.35-29.29,19.4-11.25,38.72-22.67,58.1-34a32.58,32.58,0,0,1,4-1.75c-41.64,28.52-86.77,53.37-117,96.55,1.44,1.65,2.38,2.75,3.36,3.83s1.8,1.89,3,3.13c30.2-32,63-60.8,96.26-89.08-29.52,30-62.23,56.69-91.06,87.61a22.34,22.34,0,0,0,16-5.39c3.81-3.18,6.91-7.22,10.59-10.57,7.59-6.93,15.37-13.65,23.07-20.46,4.47-3.95,9.43-7.47,13.34-11.92a275.74,275.74,0,0,1,52.6-46.6c.39-.27.9-.35,2.19.1-.9,1.24-1.56,2.85-2.75,3.68-20,13.9-37.45,30.42-53.28,48.83a48.55,48.55,0,0,1-10.87,8.72c-9.85,6.25-17.85,14.42-25.26,23.26-6.73,8-15.28,12.17-25.52,14.38-7.21,1.56-10.5-2.78-13.3-7-1.75-2.63-1.82-7.61-.57-10.69,1.74-4.29,5.36-7.84,8.31-11.61.87-1.11,2.17-1.9,3-3.86l-15.49,1-1-2,13-13.63c-3.14,0-5.58.11-8,0-3.85-.22-5.25-2.2-4.22-6,2.05-7.56,1.55-8.1-6.33-8.45a17,17,0,0,1-4.07-1.24c.67-1.38,1.05-3,2.05-4.11,2-2.19,4.37-4.07,6.55-6.12.2-.19.18-.61.35-1.23-4.94-7-13.26-2.75-20.11-6.58,1.93-1.08,3.73-2.63,5.8-3.19,13.18-3.5,26.42-6.75,39.62-10.16s26.75-6.54,39.89-10.59c19.55-6,38.88-12.76,58.29-19.23.42-.14.72-.63,1.9-1.72l-21.79,2.87c-20.8,2.72-40.37,9.63-60,16.79a189,189,0,0,1-34.71,9c-6.78,1.08-14.19-.45-21.08-1.93-5.38-1.15-6.52-4.76-4.83-10a15.72,15.72,0,0,0,1.16-4.81c-.1-7,2.31-12.65,8.35-16.57.88-.58,1.38-1.72,2.51-3.18-2.42-.64-4.27-1.26-6.17-1.6-4.21-.76-3.59-3-1.34-5.08s5-3.74,8.07-6L10.12,61.7a39.26,39.26,0,0,1,3.94-4c4.6-3.53,4.83-5.68.22-9.14C12.52,47.24,10.05,46.9,8,46a39.64,39.64,0,0,1-3.71-2.06A23.94,23.94,0,0,1,6.57,40.5c1.13-1.2,2.64-2,3.78-3.24,5.72-6,5.69-6-.59-10.93-.32-.26-.37-.87-.87-2.09.37-.18,1-.45,1.58-.76,5.8-3,6.44-4.94,2.84-10.6-1.59-2.5-3.9-4.52-5.7-6.9A33.33,33.33,0,0,1,5.14,1.51a29.19,29.19,0,0,1,5-1.41,17.63,17.63,0,0,1,5.47.28C38.73,5.17,62.14,9.06,83.93,18.73c17.49,7.76,34.71,16.11,52,24.21q7.11,3.33,14.21,6.69c-.15.4-.29.81-.44,1.22a51.53,51.53,0,0,1-5.07-1.78C127,40.85,109.28,32.85,91.81,24.25,70.34,13.68,47.22,8.82,24.1,3.88A85.21,85.21,0,0,0,8.13,2C12.34,7,15.69,11.77,22,14.41c24.68,10.43,49,21.84,73.53,32.53,11,4.76,22.28,8.66,33.37,13.1-39.13-9.52-73.8-30.15-110-45.19-1.39,4.14-2.49,7.44-3.36,10,20.11,8.58,41,17.19,61.6,26.37C94.4,59,112.77,62.84,131.17,66.76c3.19.68,6.38,1.42,9.56,2.13l-.33,1.62c-11.52-2.27-23.11-4.28-34.55-6.88C79,57.51,55,44.08,30.12,32.85,28.76,32.24,27.41,31.58,26,31c-4.18-1.9-7.73-2.32-10.38,2.71-1.59,3-4.21,5.48-6.56,8.43C33.73,46,56.1,56.35,78.93,65.28c20.45,8,42,10.14,63.59,11.75,1.23.1,2.45.28,3.68.43l0,1.38c-4.47,0-8.94.1-13.41,0-28.5-.71-54.94-9.09-80.66-20.87-10.94-5-22.75-8.13-35-12.4,2.34,6.75,3.78,7.42,8.78,8.72,4.58,1.19,8.86,3.53,13.25,5.43C47.48,63.31,55.8,67,63.94,71.33c-8.5-3.07-17-6.07-25.51-9.25-3.89-1.46-7.57-3.49-11.48-4.9-5.76-2.07-7.16-1.54-12.36,4A468.91,468.91,0,0,0,70.52,79.59c19.26,4.87,38.84,4,58.44,2.12l.09,1.22c-5,.87-10,2.06-15.11,2.57C89.18,88,65.54,83.13,42.56,74.24c-4.66-1.8-9.52-3.17-14-5.32-7.18-3.45-12.59-.84-18.47,4.86l40.85,8.58C40.12,85.16,29.26,76.57,17.78,79l-.15,1.66c10,2,19.89,5.09,30,5.82,17.89,1.29,35.9,1.84,53.82,1.39,13.52-.33,27-2.79,40.49-4.1,2.11-.2,5.89.2,6.21,1.19,1.27,3.94-2.88,3.73-5,4.55-23.87,9.32-47.81,18.47-71.75,27.62-10.41,4-20.71,8.38-31.35,11.65C29.77,131.89,22.81,139,15.37,146.52c4.66,1.73,8,1.66,11.74-2a47.36,47.36,0,0,1,14.21-9.92c10.94-4.67,22.32-8.28,34.23-12.58l-4.23,3.89c-6.1,1.92-12.25,3.72-18.29,5.81-9.81,3.38-18.93,8.06-26.26,15.57-1.24,1.27-1.51,3.48-2.49,5.9,7.78-4.79,14.31-9,21-12.91C53.88,135.28,62.59,130.58,71.24,125.77ZM91.93,92.48l-.12-1.1c-1.73,0-3.46.08-5.19,0-13.29-.78-26.63-1.1-39.84-2.57-8.54-1-16.88-3.63-25.32-5.47-4.35-.95-8.27-.11-11.49,3.16-3.05,3.11-2.5,5.22,1.58,6.85,17.09,6.82,34.68,7.28,52.56,4.26,2.77-.47,5.55-.84,8.33-1.26-21.8,8.4-43.32,6.18-64.49-2.09-4,13.44-2.6,16.36,8.47,18a21.21,21.21,0,0,0,4-.06c16.26-.81,31.77-5.22,47.1-10.22C75.79,99.21,83.8,95.65,91.93,92.48ZM24.6,161.67c8.38.69,16.22,1.84,22.6-4.66a64.42,64.42,0,0,1,5.08-4c15.65-12.92,31.4-25.69,49.32-35.46a48.6,48.6,0,0,0,4.37-3,204.18,204.18,0,0,0-25.56,10.89c-15.65,8.06-31.16,16.4-46.6,24.86C29.49,152.69,25.69,155.92,24.6,161.67Zm59.63-51.39-.48-1.14L9.38,129.23c4.15,1.65,8,3.36,11.93,4.65,1.22.39,2.92-.11,4.21-.65,7-2.92,13.92-6.21,21-8.95C59,119.45,71.66,114.93,84.23,110.28ZM27.57,199.64c16.53-24.7,38.9-43.23,62.87-60.17-5.32,2.78-10.24,6.07-15.29,9.14A83.46,83.46,0,0,0,52.6,168c-4.77,6-10.75,11.14-16.41,16.44C31.72,188.67,28.31,193.32,27.57,199.64Z"/></g></g></svg>