<svg xmlns="http://www.w3.org/2000/svg" viewBox="0 0 155.93 181.8"><g id="Ebene_2" data-name="Ebene 2"><g id="Ebene_1-2" data-name="Ebene 1"><path d="M150.26,33.49C109.94,4.74,65-1,17.65,5.57,39.77,3.81,61,9.35,81.9,15.44c20.7,6,41.69,12.58,56.73,30.16C97.17,39.12,55.9,33.16,12.84,41.66c42.1,1.83,82.69,5,121.87,19C91.65,71.67,47.67,77.32,4.42,87.12l124-10.61,1,2.19c-2.41,2.18-4.52,4.89-7.29,6.45-19,10.78-39.21,18.94-60,25.72-11.08,3.61-22.08,7.45-33.16,11.06-4.29,1.4-8.69,2.46-13,3.67l.53,2.28c19.31-4,38.88-7.14,57.85-12.41s37.23-12.7,56.18-18.49c-25.71,28-57,47.15-92.58,59.72,41.73-6.63,75-29.89,107-55.77-1,9.44-5.23,17.08-10.35,24.21-14.37,20-33.26,34.8-54.53,46.8-2.46,1.39-4.84,2.92-7.23,4.44a1.78,1.78,0,0,0-.64,1.53c16.43-6.84,34-11.85,47.08-24.66,12.55-12.3,24-25.72,36.62-38.15-4.14,5.52-8.25,11.06-12.43,16.55-17.72,23.3-41,38.69-68.61,47.67a69.33,69.33,0,0,1-13.63,2.47,4.48,4.48,0,0,1-3.6-2.11c-4.51-10.27-12.82-16.18-22.74-20.26-2.55-1-3.86-2.13-3.76-5.42a14.12,14.12,0,0,0-2.62-8.83,116,116,0,0,0-13.65-13.59c-2.54-2.2-3.81-3.82-2.82-7.49a28.27,28.27,0,0,0-1.86-20.43C7.73,98.73,6.42,92.94.86,89.91,0,89.47-.35,86.06.41,85.2,8.89,75.51,8,64.39,5.66,53.06,5,49.9,3.37,47,2.55,43.81a6.15,6.15,0,0,1,.78-3.94c2.46-4.67,6-9,7.44-13.91s1.31-10.41,1-15.59c-.28-4.25.37-6,5.05-7A135.76,135.76,0,0,1,53.94.18c28.57,1.44,56.14,6.9,81.45,20.89,5.48,3,10.47,7,15.68,10.46Z"/></g></g></svg>